<svg xmlns="http://www.w3.org/2000/svg" width="385.399" height="198.5" viewBox="0 0 385.399 198.5"><defs><style>.a{opacity:0.241;}.b,.c,.j,.k,.l{fill:#fff;}.c,.l{font-size:8px;}.c{font-family:Poppins-Medium, Poppins;font-weight:500;}.d{fill:#a0f8ff;}.e{fill:#237b74;}.f{fill:#742b81;}.g{fill:#fcffa8;}.h{fill:#723bf4;}.i{fill:#05800b;}.j{font-size:6px;}.j,.k,.l{font-family:Poppins-Regular, Poppins;}.k{font-size:7px;}</style></defs><g transform="translate(-42 -98.5)"><g class="a" transform="translate(42 156.988)"><g transform="translate(0)"><rect class="b" width="385.399" height="0.365"/><rect class="b" width="385.399" height="0.365" transform="translate(0 29.591)"/><rect class="b" width="385.399" height="0.365" transform="translate(0 58.706)"/><rect class="b" width="385.399" height="0.365" transform="translate(0 88.297)"/><rect class="b" width="385.399" height="0.365" transform="translate(0 117.411)"/></g><g transform="translate(0.174 0.159)"><rect class="b" width="1.375" height="117.602" transform="translate(0)"/></g></g><g class="a" transform="translate(42 98.5)"><g transform="translate(0 0)"><path class="b" d="M0,0H385.4V.365H0Z"/><rect class="b" width="385.399" height="0.365" transform="translate(0 29.591)"/><rect class="b" width="385.399" height="0.365" transform="translate(0 58.706)"/></g><g transform="translate(0.174 0.182)"><rect class="b" width="1.375" height="58.873" transform="translate(0)"/></g></g><text class="c" transform="translate(91.59 294)"><tspan x="-2.8" y="0">1</tspan></text><text class="c" transform="translate(149.59 294)"><tspan x="-4.616" y="0">2</tspan></text><text class="c" transform="translate(204.59 294)"><tspan x="-4.752" y="0">3</tspan></text><text class="c" transform="translate(261.59 294)"><tspan x="-5.176" y="0">4</tspan></text><text class="c" transform="translate(318.59 294)"><tspan x="-5.112" y="0">5</tspan></text><text class="c" transform="translate(374.59 294)"><tspan x="-5.136" y="0">6</tspan></text><path class="d" d="M2,0H16a2,2,0,0,1,2,2V13a0,0,0,0,1,0,0H0a0,0,0,0,1,0,0V2A2,2,0,0,1,2,0Z" transform="translate(81.59 262)"/><path class="e" d="M2,0H16a2,2,0,0,1,2,2V158a0,0,0,0,1,0,0H0a0,0,0,0,1,0,0V2A2,2,0,0,1,2,0Z" transform="translate(138.59 117)"/><path class="f" d="M2,0H16a2,2,0,0,1,2,2V42a0,0,0,0,1,0,0H0a0,0,0,0,1,0,0V2A2,2,0,0,1,2,0Z" transform="translate(194.59 233)"/><path class="g" d="M2,0H17a2,2,0,0,1,2,2V23a0,0,0,0,1,0,0H0a0,0,0,0,1,0,0V2A2,2,0,0,1,2,0Z" transform="translate(250.59 252)"/><path class="h" d="M2,0H17a2,2,0,0,1,2,2V137a0,0,0,0,1,0,0H0a0,0,0,0,1,0,0V2A2,2,0,0,1,2,0Z" transform="translate(306.59 138)"/><path class="i" d="M2,0H16a2,2,0,0,1,2,2V23a0,0,0,0,1,0,0H0a0,0,0,0,1,0,0V2A2,2,0,0,1,2,0Z" transform="translate(363.59 252)"/><text class="j" transform="translate(91.59 253)"><tspan x="-1.92" y="0">1</tspan></text><text class="k" transform="translate(152.59 109)"><tspan x="-11.081" y="0">106</tspan></text><text class="k" transform="translate(207.59 227)"><tspan x="-8.435" y="0">29</tspan></text><text class="k" transform="translate(262.59 248)"><tspan x="-6.685" y="0">16</tspan></text><text class="l" transform="translate(320.59 132)"><tspan x="-10.072" y="0">94</tspan></text><text class="k" transform="translate(375.59 245)"><tspan x="-6.062" y="0">17</tspan></text></g></svg>