<svg xmlns="http://www.w3.org/2000/svg" width="234.549" height="186.959" viewBox="0 0 234.549 186.959"><defs><style>.a,.d{fill:#f5f5f5;}.a{opacity:0.058;}.b{fill:#e0e0e0;}.c{fill:#ebebeb;}.e{fill:#27debf;}.f,.i{fill:#68a3da;}.f,.j{opacity:0.7;}.g{fill:#fff;}.h,.l,.o,.q{fill:#6dbffc;}.j{fill:#64aeff;}.k,.q{opacity:0.6;}.l,.p{opacity:0.8;}.m{fill:#455a64;}.n{opacity:0.5;mix-blend-mode:multiply;isolation:isolate;}.o{opacity:0.2;}.p{fill:#bde1ff;}</style></defs><g transform="translate(-32.442 -65.475)"><g transform="translate(32.442 129.903)"><g transform="translate(0 0)"><path class="a" d="M66.791,293.1c45.8,23.926,120.053,23.927,165.85,0s45.8-62.717,0-86.643-120.053-23.926-165.851,0S20.992,269.176,66.791,293.1Z" transform="translate(-32.442 -188.515)"/></g></g><g transform="translate(39.115 108.681)"><g transform="translate(0)"><g transform="translate(0.001 33.771)"><g transform="translate(0 12.28)"><path class="b" d="M60.077,276.457l-14.889-8.6V235.932l14.889,8.6Z" transform="translate(-45.187 -235.932)"/></g><g transform="translate(14.889 8.597)"><path class="c" d="M73.622,241.177l21.27-12.28v31.929l-21.271,12.28Z" transform="translate(-73.622 -228.896)"/></g><path class="d" d="M81.347,221.076l-21.27,12.28-14.889-8.6,21.27-12.28Z" transform="translate(-45.187 -212.479)"/><g transform="translate(17.016 12.28)"><path class="b" d="M77.684,245.756,94.7,235.932l.391.226v11.827l-17.016,9.824-.391-.226Z" transform="translate(-77.684 -235.932)"/><g transform="translate(0.391 0.226)"><path class="d" d="M78.431,246.188l17.016-9.824V248.19l-17.016,9.824Z" transform="translate(-78.431 -236.363)"/></g><g transform="translate(6.381 6.418)"><path class="b" d="M90.55,249.974l2.894-1.671c.376-.217.681-.117.681.221a1.361,1.361,0,0,1-.681,1.007L90.55,251.2c-.376.217-.68.118-.68-.22A1.361,1.361,0,0,1,90.55,249.974Z" transform="translate(-89.87 -248.188)"/></g></g><g transform="translate(16.625 27.245)"><path class="b" d="M76.937,274.334l17.016-9.824v11.827l.391.226-17.016,9.824-.391-.227Z" transform="translate(-76.936 -264.51)"/><g transform="translate(0.391 0.226)"><path class="d" d="M77.684,274.766,94.7,264.941v11.827l-17.016,9.824Z" transform="translate(-77.683 -264.941)"/></g><g transform="translate(6.382 6.418)"><path class="b" d="M89.8,278.553l2.894-1.671c.375-.217.68-.117.68.221a1.363,1.363,0,0,1-.68,1.007L89.8,279.78c-.375.217-.68.118-.68-.221A1.362,1.362,0,0,1,89.8,278.553Z" transform="translate(-89.123 -276.767)"/></g></g></g><g transform="translate(0 12.28)"><path class="b" d="M60.076,211.964l-14.889-8.6V171.439l14.889,8.6Z" transform="translate(-45.186 -171.439)"/></g><g transform="translate(14.889 8.596)"><path class="c" d="M73.621,176.683l21.27-12.28v31.929l-21.27,12.28Z" transform="translate(-73.621 -164.403)"/></g><path class="d" d="M81.346,156.583l-21.27,12.28-14.889-8.6,21.27-12.28Z" transform="translate(-45.186 -147.986)"/><g transform="translate(17.016 12.28)"><path class="b" d="M77.683,181.262,94.7,171.438l.391.226v11.827l-17.016,9.824-.391-.226Z" transform="translate(-77.682 -171.438)"/><g transform="translate(6.381 6.418)"><path class="b" d="M90.549,185.481l2.894-1.67c.376-.217.68-.118.68.221a1.361,1.361,0,0,1-.68,1.007l-2.894,1.67c-.375.217-.68.118-.68-.221A1.363,1.363,0,0,1,90.549,185.481Z" transform="translate(-89.869 -183.695)"/></g></g><g transform="translate(16.624 27.245)"><path class="b" d="M76.935,209.841l17.016-9.824v11.827l.391.226-17.016,9.824-.391-.226Z" transform="translate(-76.935 -200.017)"/><g transform="translate(0.391 0.226)"><path class="d" d="M77.683,210.273,94.7,200.449v11.827L77.682,222.1Z" transform="translate(-77.682 -200.449)"/></g><g transform="translate(6.381 6.418)"><path class="b" d="M89.8,214.059l2.894-1.671c.375-.217.68-.118.68.221a1.361,1.361,0,0,1-.681,1.006L89.8,215.287c-.376.217-.68.118-.68-.221A1.363,1.363,0,0,1,89.8,214.059Z" transform="translate(-89.121 -212.274)"/></g></g><g transform="translate(17.016 12.28)"><path class="b" d="M77.682,181.262,94.7,171.438v11.826l-17.016,9.824Z" transform="translate(-77.682 -171.438)"/><g transform="translate(16.21 0.467)"><path class="b" d="M117.954,177.7l-9.314-5.376v10.419l9.314,5.376Z" transform="translate(-108.639 -172.329)"/></g><g transform="translate(6.382 1.228)"><path class="c" d="M89.869,195.888V181.151l3.651-2.115.6.887,10.635-6.14v13.508Z" transform="translate(-89.869 -173.783)"/><g transform="translate(0 0.614)"><path class="d" d="M89.869,196.447l1.063-12.895,14.889-8.6-1.063,12.894Z" transform="translate(-89.869 -174.956)"/></g></g><g transform="translate(0.39 10.98)"><path class="c" d="M86.546,197.094l-8.118-4.687v10.419l8.118,4.687Z" transform="translate(-78.427 -192.407)"/></g><g transform="translate(8.508 4.912)"><path class="d" d="M93.931,190.643l17.016-9.824v11.826L93.93,202.469Z" transform="translate(-93.93 -180.818)"/></g><g transform="translate(14.498 11.104)"><path class="b" d="M106.049,194.429l2.894-1.671c.375-.217.68-.118.68.221a1.362,1.362,0,0,1-.681,1.006l-2.894,1.671c-.376.217-.68.118-.68-.221A1.364,1.364,0,0,1,106.049,194.429Z" transform="translate(-105.369 -192.644)"/></g><g transform="translate(7.942 14.409)"><path class="b" d="M93.415,199.283l-.567-.327v11.826l.567.327Z" transform="translate(-92.848 -198.956)"/></g><g transform="translate(7.942 4.585)"><path class="c" d="M92.848,190.018l17.016-9.824.567.327-17.016,9.824Z" transform="translate(-92.848 -180.194)"/></g></g><g transform="translate(175.877 14.425)"><g transform="translate(0 12.28)"><path class="b" d="M395.954,239.511l-14.889-8.6V198.985l14.889,8.6Z" transform="translate(-381.064 -198.985)"/></g><g transform="translate(14.889 8.596)"><path class="c" d="M409.5,204.231l21.27-12.28v31.929L409.5,236.159Z" transform="translate(-409.499 -191.95)"/></g><path class="d" d="M417.224,184.13l-21.27,12.28-14.889-8.6,21.27-12.28Z" transform="translate(-381.064 -175.534)"/><g transform="translate(17.016 12.28)"><path class="b" d="M413.561,208.81l17.016-9.824.391.226v11.826l-17.016,9.824-.391-.226Z" transform="translate(-413.56 -198.985)"/><g transform="translate(0.391 0.226)"><path class="d" d="M414.308,209.242l17.016-9.824v11.826l-17.016,9.824Z" transform="translate(-414.308 -199.417)"/></g><g transform="translate(6.381 6.418)"><path class="b" d="M426.428,213.028l2.893-1.67c.376-.217.68-.118.68.221a1.361,1.361,0,0,1-.68,1.007l-2.894,1.671c-.376.217-.68.118-.68-.221A1.362,1.362,0,0,1,426.428,213.028Z" transform="translate(-425.747 -211.242)"/></g></g><g transform="translate(16.625 27.245)"><path class="b" d="M412.814,237.388l17.016-9.824v11.826l.391.226L413.2,249.441l-.391-.227Z" transform="translate(-412.813 -227.564)"/><g transform="translate(0.391 0.226)"><path class="d" d="M413.561,237.82,430.577,228v11.827l-17.016,9.824Z" transform="translate(-413.56 -227.996)"/></g><g transform="translate(6.381 6.418)"><path class="b" d="M425.68,241.606l2.894-1.671c.375-.217.68-.118.68.222a1.364,1.364,0,0,1-.68,1.007l-2.894,1.67c-.376.217-.68.118-.68-.221A1.363,1.363,0,0,1,425.68,241.606Z" transform="translate(-424.999 -239.821)"/></g></g></g></g></g><g transform="translate(70.128 174.19)"><g transform="translate(0 0)"><g transform="translate(0 8.825)"><g transform="translate(6.853)"><path class="e" d="M128.735,316.215s.062-8.3-5.175-14.531c-4.638-5.515-7.1-9.013-5.639-10.624s4.6-2,8.836,2.457,4.566,16.819,3.981,19.616Z" transform="translate(-117.5 -289.944)"/><path class="f" d="M128.735,316.215s.062-8.3-5.175-14.531c-4.638-5.515-7.1-9.013-5.639-10.624s4.6-2,8.836,2.457,4.566,16.819,3.981,19.616Z" transform="translate(-117.5 -289.944)"/><path class="g" d="M132,308.463a.262.262,0,0,1-.256-.207,26.085,26.085,0,0,0-9.18-15.373.262.262,0,0,1,.322-.413,26.606,26.606,0,0,1,9.369,15.677.262.262,0,0,1-.2.311A.281.281,0,0,1,132,308.463Z" transform="translate(-119.867 -291.12)"/></g><g transform="translate(0 10.135)"><path class="h" d="M122.322,328.525l-2.127,1.228a3.853,3.853,0,0,0-2.872-2.456c-2.328-.546-4.749-.437-6.379-2.457s.354-4.217,0-5.706-.591-1.917-3.511-3.4-4.074-3.954-1.876-5.627,5.769-.445,7.919,1.023a12.174,12.174,0,0,0,5.878,1.919c2.137.262,5.63,1.459,5.1,6.432A39.226,39.226,0,0,1,122.322,328.525Z" transform="translate(-104.412 -309.299)"/><path class="g" d="M122.731,332.451a.262.262,0,0,1-.08-.511c.192-.061,4.724-1.492,6.638.045a.262.262,0,0,1-.328.408c-1.7-1.362-6.106.031-6.15.045A.254.254,0,0,1,122.731,332.451Z" transform="translate(-113.013 -319.768)"/><path class="g" d="M125.417,329.732a.261.261,0,0,1-.26-.234c-1.166-11.027-14.45-16.259-14.584-16.311a.262.262,0,1,1,.187-.489c.137.052,13.717,5.4,14.917,16.744a.261.261,0,0,1-.232.288Z" transform="translate(-107.267 -310.91)"/></g></g><g transform="translate(135.263)"><path class="e" d="M375.854,304.025c.06-.18,2.306-11.745,0-19.945-2.114-7.518-4.827-10.293-8.722-10.9s-5.585,2.193-3.517,5.992,7.045,8.848,8.268,17.34c.5,3.5.922,6.534.922,6.534Z" transform="translate(-362.727 -273.091)"/><path class="f" d="M375.854,304.025c.06-.18,2.306-11.745,0-19.945-2.114-7.518-4.827-10.293-8.722-10.9s-5.585,2.193-3.517,5.992,7.045,8.848,8.268,17.34c.5,3.5.922,6.534.922,6.534Z" transform="translate(-362.727 -273.091)"/><path class="g" d="M377.67,298.959h-.015a.261.261,0,0,1-.247-.276c.536-9.361-2.535-17.721-8.016-21.817a.262.262,0,0,1,.314-.419c5.619,4.2,8.771,12.732,8.224,22.267A.261.261,0,0,1,377.67,298.959Z" transform="translate(-365.853 -274.664)"/><g transform="translate(10.835 4.984)"><path class="h" d="M391.742,314.583c-.3-2.15.937-5.379,3.873-6.141s4.248-2.452,3.187-4.3-.81-3.534,1.856-4.3,5-2.105,3.464-4.911c-1.114-2.035-1.361-3.354,1.372-7.369,2.266-3.329.414-5.282-2.426-4.912s-4.59,3.745-6.362,4.315-2.187-2.454-4.528-1.1-2.2,4.814-2.27,7.227-.231,2.961-2.348,2.664-4.181.054-4.141,5.17c.034,4.391,2.378,9.825,2.378,9.825Z" transform="translate(-383.419 -282.609)"/><path class="g" d="M391.984,312.928l-.03,0a.262.262,0,0,1-.231-.29c1.475-13.193,12.8-24.318,15.748-26.575a.262.262,0,0,1,.318.416c-2.914,2.228-14.092,13.208-15.546,26.217A.262.262,0,0,1,391.984,312.928Z" transform="translate(-387.374 -284.228)"/><path class="g" d="M401.843,309.119a.262.262,0,0,1-.092-.507,20.5,20.5,0,0,1,9.211-.8.262.262,0,0,1,.217.3.266.266,0,0,1-.3.217,20.332,20.332,0,0,0-8.945.772A.27.27,0,0,1,401.843,309.119Z" transform="translate(-392.071 -294.519)"/><path class="g" d="M391.581,318.761a.262.262,0,0,1-.2-.089,15.4,15.4,0,0,1-3.45-7.158.262.262,0,0,1,.518-.079,15.153,15.153,0,0,0,3.325,6.89.262.262,0,0,1-.2.435Z" transform="translate(-385.569 -296.235)"/></g></g></g></g><g transform="translate(88.038 90.799)"><g transform="translate(0)"><g transform="translate(0 0)"><path class="e" d="M138.615,154.364v81.05l82.954-47.893V113.838l-61.683,35.613-2.127-6.14Z" transform="translate(-138.615 -113.838)"/><path class="i" d="M138.615,154.364v81.05l82.954-47.893V113.838l-61.683,35.613-2.127-6.14Z" transform="translate(-138.615 -113.838)"/></g><path class="b" d="M138.615,235.414l4.254-73.682,82.954-47.893-4.253,73.683Z" transform="translate(-138.615 -113.838)"/><g transform="translate(0 1.228)"><path class="i" d="M138.615,236.531,145,164.076l82.954-47.893-6.38,72.455Z" transform="translate(-138.615 -116.183)"/><path class="f" d="M138.615,236.531,145,164.076l82.954-47.893-6.38,72.455Z" transform="translate(-138.615 -116.183)"/></g></g></g><g transform="translate(100.8 98.168)"><g transform="translate(0)"><g transform="translate(0 0)"><path class="e" d="M162.988,168.435v81.051l82.954-47.893V127.91l-61.683,35.613-2.127-6.14Z" transform="translate(-162.988 -127.91)"/><path class="h" d="M162.988,168.435v81.051l82.954-47.893V127.91l-61.683,35.613-2.127-6.14Z" transform="translate(-162.988 -127.91)"/></g><path class="b" d="M162.988,249.485l4.253-73.682L250.2,127.909l-4.253,73.683Z" transform="translate(-162.988 -127.909)"/><g transform="translate(0 1.228)"><path class="e" d="M162.988,250.6l6.381-72.454,82.954-47.893-6.38,72.455Z" transform="translate(-162.988 -130.254)"/><path class="h" d="M162.988,250.6l6.381-72.454,82.954-47.893-6.38,72.455Z" transform="translate(-162.988 -130.254)"/></g></g></g><g transform="translate(115.689 65.475)"><g transform="translate(20.294 140.096)"><path class="b" d="M265.186,372.982c-14.889-8.6-28.7-17.942-35.009-28.909L249.32,333.02Z" transform="translate(-230.177 -333.02)"/></g><g transform="translate(0 41.289)"><path class="e" d="M191.421,184.851V265.9l82.954-47.894V144.326l-61.683,35.613-2.127-6.14Z" transform="translate(-191.421 -144.326)"/><path class="i" d="M191.421,184.851V265.9l82.954-47.894V144.326l-61.683,35.613-2.127-6.14Z" transform="translate(-191.421 -144.326)"/></g><g transform="translate(23.397)"><g transform="translate(0.262 0.262)"><path class="g" d="M236.842,171.491c-.209,0-.24-.241-.24-.385V101.974a1.745,1.745,0,0,1,.776-1.344l59.87-34.566a.574.574,0,0,1,.274-.089c.209,0,.24.241.24.385v69.132a1.743,1.743,0,0,1-.776,1.344L237.116,171.4A.577.577,0,0,1,236.842,171.491Z" transform="translate(-236.602 -65.975)"/></g><path class="e" d="M297.249,66a.458.458,0,0,1,.013.118v69.132a1.5,1.5,0,0,1-.645,1.117l-59.87,34.566a.074.074,0,1,1-.121-.07V101.736a1.5,1.5,0,0,1,.645-1.117l59.87-34.566a.458.458,0,0,1,.108-.048m.035-.529a.825.825,0,0,0-.4.124l-59.87,34.566a2,2,0,0,0-.907,1.571v69.132c0,.41.2.647.5.647a.822.822,0,0,0,.4-.124l59.87-34.566a2,2,0,0,0,.907-1.571V66.122c0-.41-.2-.647-.5-.647Z" transform="translate(-236.102 -65.475)"/><path class="j" d="M297.249,66a.458.458,0,0,1,.013.118v69.132a1.5,1.5,0,0,1-.645,1.117l-59.87,34.566a.074.074,0,1,1-.121-.07V101.736a1.5,1.5,0,0,1,.645-1.117l59.87-34.566a.458.458,0,0,1,.108-.048m.035-.529a.825.825,0,0,0-.4.124l-59.87,34.566a2,2,0,0,0-.907,1.571v69.132c0,.41.2.647.5.647a.822.822,0,0,0,.4-.124l59.87-34.566a2,2,0,0,0,.907-1.571V66.122c0-.41-.2-.647-.5-.647Z" transform="translate(-236.102 -65.475)"/><g transform="translate(6.382 26.617)"><g class="k"><path class="h" d="M248.289,128.587l21.27-12.28v24.561l-21.27,12.28Z" transform="translate(-248.289 -116.306)"/><path class="l" d="M248.289,128.587l21.27-12.28v24.561l-21.27,12.28Z" transform="translate(-248.289 -116.306)"/></g><g transform="translate(3.19 6.14)"><path class="g" d="M269.271,128.032V135.4l-.666.372v-2.258c0-1.246-1.015-1.671-2.267-.948l-9.022,5.209a4.694,4.694,0,0,0-2.267,3.566V143.6l-.666.4v-7.368Z" transform="translate(-254.382 -128.032)"/><g transform="translate(2.127 5.484)"><path class="g" d="M267.1,151.8c-1.091.63-1.976-.031-1.976-1.477V138.5l-2.732,1.487V151.9a4.714,4.714,0,0,1-1.975,3.759l-1.976,1.14v.782l10.636-6.14v-.782Z" transform="translate(-258.444 -138.504)"/></g></g></g><g transform="translate(31.906 11.208)"><path class="m" d="M297.033,101.06c0,.678.61.877,1.361.443L319.07,89.565a2.723,2.723,0,0,0,1.36-2.013c0-.678-.609-.877-1.36-.443L298.394,99.047A2.723,2.723,0,0,0,297.033,101.06Z" transform="translate(-297.033 -86.879)"/><g transform="translate(0 7.368)"><path class="m" d="M297.033,115.131c0,.679.61.877,1.361.443l20.676-11.937a2.725,2.725,0,0,0,1.36-2.014c0-.678-.609-.877-1.36-.442l-20.676,11.937A2.723,2.723,0,0,0,297.033,115.131Z" transform="translate(-297.033 -100.951)"/></g><g transform="translate(0 14.736)"><path class="m" d="M297.033,129.2c0,.678.61.876,1.361.442l20.676-11.937a2.724,2.724,0,0,0,1.36-2.014c0-.678-.609-.876-1.36-.442l-20.676,11.937A2.724,2.724,0,0,0,297.033,129.2Z" transform="translate(-297.033 -115.022)"/></g><g transform="translate(0 22.105)"><path class="m" d="M297.033,143.274c0,.678.61.877,1.361.442l20.676-11.937a2.723,2.723,0,0,0,1.36-2.014c0-.678-.609-.876-1.36-.442l-20.676,11.938A2.723,2.723,0,0,0,297.033,143.274Z" transform="translate(-297.033 -129.093)"/></g></g><g transform="translate(6.382 40.681)"><path class="m" d="M248.289,172.085c0,.678.609.876,1.36.442l46.2-26.676a2.724,2.724,0,0,0,1.36-2.014c0-.678-.609-.877-1.36-.442l-46.2,26.676A2.724,2.724,0,0,0,248.289,172.085Z" transform="translate(-248.289 -143.165)"/><g transform="translate(0 7.368)"><path class="m" d="M248.289,186.156c0,.678.609.877,1.36.442l46.2-26.676a2.723,2.723,0,0,0,1.36-2.014c0-.678-.609-.876-1.36-.442l-46.2,26.676A2.724,2.724,0,0,0,248.289,186.156Z" transform="translate(-248.289 -157.236)"/></g><g transform="translate(0 14.737)"><path class="m" d="M248.289,200.227c0,.678.609.877,1.36.442l46.2-26.676a2.725,2.725,0,0,0,1.36-2.014c0-.679-.609-.877-1.36-.442l-46.2,26.676A2.723,2.723,0,0,0,248.289,200.227Z" transform="translate(-248.289 -171.307)"/></g></g></g><g transform="translate(0.001 49.885)"><path class="h" d="M191.422,273.722l14.889-65.086,82.954-47.893-14.889,65.086Z" transform="translate(-191.422 -160.743)"/><g class="n" transform="translate(20.293 41.939)"><path class="h" d="M230.177,251.887v48.272l19.143-11.053V240.835Z" transform="translate(-230.177 -240.835)"/><path class="o" d="M230.177,251.887v48.272l19.143-11.053V240.835Z" transform="translate(-230.177 -240.835)"/></g></g><g transform="translate(21.27 68.306)"><g transform="translate(0.262 0.453)"><path class="g" d="M266.329,307.772c-1.626-1.212-17.324-13.212-25.3-30.35-8.495-18.243-8.487-39.521-8.484-47.531v-.249l56.907-32.854c0,8.083.008,29.391,8.533,47.7,7.794,16.741,22.892,28.6,25.286,30.414Z" transform="translate(-232.541 -196.787)"/></g><path class="e" d="M288.947,196.828c0,8.419.163,29.329,8.558,47.356,7.533,16.177,21.86,27.813,25.052,30.273l-56.447,32.59c-2.206-1.663-17.315-13.459-25.086-30.149-8.47-18.19-8.462-39.426-8.46-47.42v-.1l56.383-32.552m.524-.907-57.43,33.157c0,7.533-.159,29.428,8.509,48.042,8.508,18.272,25.525,30.553,25.525,30.553l57.43-33.157s-17.017-12.281-25.525-30.553c-8.668-18.615-8.509-40.509-8.509-48.042Z" transform="translate(-232.041 -195.921)"/><path class="j" d="M288.947,196.828c0,8.419.163,29.329,8.558,47.356,7.533,16.177,21.86,27.813,25.052,30.273l-56.447,32.59c-2.206-1.663-17.315-13.459-25.086-30.149-8.47-18.19-8.462-39.426-8.46-47.42v-.1l56.383-32.552m.524-.907-57.43,33.157c0,7.533-.159,29.428,8.509,48.042,8.508,18.272,25.525,30.553,25.525,30.553l57.43-33.157s-17.017-12.281-25.525-30.553c-8.668-18.615-8.509-40.509-8.509-48.042Z" transform="translate(-232.041 -195.921)"/><g transform="translate(11.188 10.883)"><g transform="translate(20.265)"><path class="m" d="M311.59,216.939l-18.162,10.486a2.583,2.583,0,0,0-1.32,1.987c.026.663.66.85,1.412.416l18.162-10.487a2.57,2.57,0,0,0,1.31-1.987C312.967,216.692,312.342,216.506,311.59,216.939Z" transform="translate(-292.108 -216.705)"/></g><g transform="translate(20.704 7.14)"><path class="m" d="M312.376,230.58l-18.163,10.486a2.415,2.415,0,0,0-1.265,1.956c.056.646.715.817,1.467.383l18.163-10.486a2.4,2.4,0,0,0,1.254-1.955C313.777,230.319,313.127,230.146,312.376,230.58Z" transform="translate(-292.945 -230.341)"/></g><g transform="translate(21.483 14.083)"><path class="m" d="M313.81,243.846l-18.162,10.486a2.238,2.238,0,0,0-1.2,1.921c.09.627.777.783,1.527.349l18.163-10.486a2.226,2.226,0,0,0,1.193-1.92C315.238,243.569,314.562,243.412,313.81,243.846Z" transform="translate(-294.434 -243.6)"/></g><g transform="translate(22.625 20.817)"><path class="m" d="M315.938,256.711,297.776,267.2a2.074,2.074,0,0,0-1.143,1.886c.124.608.838.746,1.59.313l18.163-10.486a2.056,2.056,0,0,0,1.131-1.883C317.393,256.419,316.689,256.277,315.938,256.711Z" transform="translate(-296.614 -256.459)"/></g><g transform="translate(24.157 27.325)"><path class="m" d="M318.809,269.147l-18.163,10.486a1.9,1.9,0,0,0-1.075,1.847c.16.585.906.707,1.658.273l18.162-10.486a1.886,1.886,0,0,0,1.063-1.844C320.293,268.837,319.56,268.713,318.809,269.147Z" transform="translate(-299.54 -268.888)"/></g><g transform="translate(0 33.593)"><path class="m" d="M298.723,281.127l-44.267,25.558a1.73,1.73,0,0,0-1,1.8c.2.561.983.662,1.734.228l44.268-25.558a1.711,1.711,0,0,0,.986-1.8C300.24,280.8,299.474,280.693,298.723,281.127Z" transform="translate(-253.407 -280.859)"/></g><g transform="translate(2.421 39.578)"><path class="m" d="M303.284,292.566l-44.267,25.558c-.751.434-1.164,1.221-.915,1.755s1.063.615,1.814.182L304.183,294.5c.751-.434,1.155-1.217.907-1.752S304.035,292.133,303.284,292.566Z" transform="translate(-258.029 -292.289)"/></g><g transform="translate(5.365 45.281)"><path class="m" d="M308.85,303.47l-44.267,25.558c-.751.434-1.126,1.2-.828,1.706s1.156.561,1.907.127L309.928,305.3c.752-.434,1.112-1.191.814-1.7S309.6,303.036,308.85,303.47Z" transform="translate(-263.652 -303.181)"/></g><g transform="translate(8.823 50.671)"><path class="m" d="M315.4,313.773,271.136,339.33c-.751.434-1.088,1.179-.745,1.66a1.571,1.571,0,0,0,1.987.08l44.267-25.558c.751-.434,1.077-1.17.734-1.65A1.552,1.552,0,0,0,315.4,313.773Z" transform="translate(-270.256 -313.472)"/></g><g transform="translate(12.727 55.796)"><path class="m" d="M322.818,323.572,278.551,349.13c-.751.434-1.055,1.161-.673,1.618a1.72,1.72,0,0,0,2.058.038L324.2,325.229c.751-.434,1.046-1.152.663-1.61A1.7,1.7,0,0,0,322.818,323.572Z" transform="translate(-277.712 -323.261)"/></g><g transform="translate(17.042 60.681)"><path class="m" d="M331.022,332.911l-44.267,25.558c-.751.434-1.026,1.143-.606,1.579a1.871,1.871,0,0,0,2.123,0l44.267-25.557c.751-.434,1.016-1.135.6-1.571A1.856,1.856,0,0,0,331.022,332.911Z" transform="translate(-285.952 -332.589)"/></g><g transform="translate(21.755 65.342)"><path class="m" d="M339.989,341.824l-44.267,25.558c-.751.434-1,1.127-.541,1.543a2.03,2.03,0,0,0,2.188-.038l44.267-25.558c.751-.434.988-1.118.533-1.534A2.013,2.013,0,0,0,339.989,341.824Z" transform="translate(-294.952 -341.491)"/></g></g><g transform="translate(5.308 25.404)"><path class="e" d="M263.062,244.435l-20.884,12.057a121.825,121.825,0,0,0,4.26,29.469L267.322,273.9A121.82,121.82,0,0,1,263.062,244.435Z" transform="translate(-242.178 -244.435)"/><path class="p" d="M263.062,244.435l-20.884,12.057a121.825,121.825,0,0,0,4.26,29.469L267.322,273.9A121.82,121.82,0,0,1,263.062,244.435Z" transform="translate(-242.178 -244.435)"/><g transform="translate(0 7.729)"><path class="h" d="M250.7,261.848a3.461,3.461,0,0,0-1.021-2.653l-7.5,4.328c.061,2,.169,4.236.349,6.642a4.9,4.9,0,0,0,2.837-.5C248.309,268.292,250.7,264.792,250.7,261.848Z" transform="translate(-242.178 -259.195)"/><path class="q" d="M250.7,261.848a3.461,3.461,0,0,0-1.021-2.653l-7.5,4.328c.061,2,.169,4.236.349,6.642a4.9,4.9,0,0,0,2.837-.5C248.309,268.292,250.7,264.792,250.7,261.848Z" transform="translate(-242.178 -259.195)"/></g><g transform="translate(8.013 12.424)"><path class="h" d="M272.841,277.981h0c-1.393-1.757-4.226-7.175-5.436-9.536a.524.524,0,0,0-.968.089,57.456,57.456,0,0,0-2.266,13.746,19.936,19.936,0,0,1-4.433-4.934.462.462,0,0,0-.832.144,51.367,51.367,0,0,0-1.138,17.441h0l16.844-9.725C273.914,282.782,273.333,280.364,272.841,277.981Z" transform="translate(-257.481 -268.161)"/><path class="q" d="M272.841,277.981h0c-1.393-1.757-4.226-7.175-5.436-9.536a.524.524,0,0,0-.968.089,57.456,57.456,0,0,0-2.266,13.746,19.936,19.936,0,0,1-4.433-4.934.462.462,0,0,0-.832.144,51.367,51.367,0,0,0-1.138,17.441h0l16.844-9.725C273.914,282.782,273.333,280.364,272.841,277.981Z" transform="translate(-257.481 -268.161)"/></g></g></g></g></g></svg>